<?xml version="1.0" encoding="utf-8"?>
<!-- Generator: Adobe Illustrator 15.0.0, SVG Export Plug-In . SVG Version: 6.00 Build 0)  -->
<!DOCTYPE svg PUBLIC "-//W3C//DTD SVG 1.1//EN" "http://www.w3.org/Graphics/SVG/1.1/DTD/svg11.dtd">
<svg version="1.1" id="Layer_1" xmlns="http://www.w3.org/2000/svg" xmlns:xlink="http://www.w3.org/1999/xlink" x="0px" y="0px"
	 width="33.302px" height="16.207px" viewBox="0 0 33.302 16.207" enable-background="new 0 0 33.302 16.207" xml:space="preserve">
<path fill="#FFFFFF" d="M4.9,6.366C4.862,6.157,4.84,5.943,4.84,5.723c0-2.009,1.628-3.637,3.637-3.637
	c1.15,0,2.173,0.534,2.839,1.366C12.782,1.367,15.202,0,17.945,0c4.101,0,7.48,3.049,8.02,7.002
	c0.714-0.404,1.538-0.637,2.416-0.637c2.719,0,4.921,2.203,4.921,4.921c0,2.718-2.202,4.92-4.921,4.92H4.921
	C2.203,16.207,0,14.004,0,11.287C0,8.575,2.192,6.378,4.9,6.366"/>
</svg>
