<?xml version="1.0" encoding="utf-8"?>
<!-- Generator: Adobe Illustrator 15.0.0, SVG Export Plug-In . SVG Version: 6.00 Build 0)  -->
<!DOCTYPE svg PUBLIC "-//W3C//DTD SVG 1.1//EN" "http://www.w3.org/Graphics/SVG/1.1/DTD/svg11.dtd">
<svg version="1.1" id="Layer_1" xmlns="http://www.w3.org/2000/svg" xmlns:xlink="http://www.w3.org/1999/xlink" x="0px" y="0px"
	 width="137.341px" height="48.154px" viewBox="0 0 137.341 48.154" enable-background="new 0 0 137.341 48.154"
	 xml:space="preserve">
<path fill="#FFFFFF" d="M14.217,19.72c4.241,0,8.038,1.868,10.643,4.813c0.459-4.335,4.126-7.714,8.583-7.714
	c2.91,0,5.479,1.444,7.043,3.651C42.226,8.884,52.221,0,64.293,0c11.095,0,20.431,7.507,23.222,17.718
	c1.58-2.006,4.027-3.298,6.779-3.298c4.379,0,7.987,3.263,8.549,7.489c2.189-1.379,4.775-2.189,7.556-2.189
	c7.194,0,13.125,5.349,14.069,12.284c1.254-0.708,2.699-1.117,4.24-1.117c4.768,0,8.633,3.865,8.633,8.633s-3.865,8.635-8.633,8.635
	H14.217C6.365,48.154,0,41.789,0,33.937C0,26.085,6.365,19.72,14.217,19.72"/>
</svg>
