<?xml version="1.0" encoding="utf-8"?>
<!-- Generator: Adobe Illustrator 15.0.0, SVG Export Plug-In . SVG Version: 6.00 Build 0)  -->
<!DOCTYPE svg PUBLIC "-//W3C//DTD SVG 1.1//EN" "http://www.w3.org/Graphics/SVG/1.1/DTD/svg11.dtd">
<svg version="1.1" id="Layer_1" xmlns="http://www.w3.org/2000/svg" xmlns:xlink="http://www.w3.org/1999/xlink" x="0px" y="0px"
	 width="93.098px" height="48.154px" viewBox="0 0 93.098 48.154" enable-background="new 0 0 93.098 48.154" xml:space="preserve">
<path fill="#FFFFFF" d="M78.881,19.72c-2.191,0-4.259,0.51-6.112,1.396C71.309,9.217,61.174,0,48.88,0
	c-8.181,0-15.402,4.083-19.754,10.318c-1.517-1.325-3.497-2.133-5.669-2.133c-4.769,0-8.634,3.866-8.634,8.634
	c0,1.041,0.193,2.034,0.531,2.959c-0.376-0.03-0.754-0.058-1.138-0.058C6.365,19.72,0,26.085,0,33.937
	c0,7.853,6.365,14.218,14.217,14.218h64.664c7.852,0,14.217-6.365,14.217-14.218C93.098,26.085,86.732,19.72,78.881,19.72"/>
</svg>
