<?xml version="1.0" encoding="utf-8"?>
<!-- Generator: Adobe Illustrator 15.0.0, SVG Export Plug-In . SVG Version: 6.00 Build 0)  -->
<!DOCTYPE svg PUBLIC "-//W3C//DTD SVG 1.1//EN" "http://www.w3.org/Graphics/SVG/1.1/DTD/svg11.dtd">
<svg version="1.1" id="Layer_1" xmlns="http://www.w3.org/2000/svg" xmlns:xlink="http://www.w3.org/1999/xlink" x="0px" y="0px"
	 width="108.154px" height="40.861px" viewBox="0 0 108.154 40.861" enable-background="new 0 0 108.154 40.861"
	 xml:space="preserve">
<path fill="#FFFFFF" d="M96.145,16.658c-1.576,0-3.076,0.312-4.455,0.863c0.131-0.42,0.222-0.857,0.222-1.321
	c0-2.468-2.001-4.468-4.469-4.468c-0.458,0-0.891,0.089-1.307,0.217c0.002-0.073,0.011-0.145,0.011-0.217
	c0-4.028-3.265-7.294-7.293-7.294c-2.543,0-4.78,1.304-6.085,3.277c-0.524-1.885-2.235-3.277-4.288-3.277
	c-1.518,0-2.854,0.761-3.661,1.917C61.113,2.444,55.872,0,50.058,0c-10.686,0-19.44,8.242-20.269,18.715
	c-1.919-1.298-4.231-2.057-6.723-2.057c-6.195,0-11.291,4.692-11.938,10.715c-1.115-0.691-2.427-1.098-3.835-1.098
	C3.266,26.275,0,29.54,0,33.568c0,4.027,3.266,7.293,7.294,7.293h88.561v-0.198c0.097,0.003,0.191,0.015,0.29,0.015
	c6.633,0,12.01-5.377,12.01-12.01S102.777,16.658,96.145,16.658"/>
</svg>
