<?xml version="1.0" encoding="utf-8"?>
<!-- Generator: Adobe Illustrator 15.0.0, SVG Export Plug-In . SVG Version: 6.00 Build 0)  -->
<!DOCTYPE svg PUBLIC "-//W3C//DTD SVG 1.1//EN" "http://www.w3.org/Graphics/SVG/1.1/DTD/svg11.dtd">
<svg version="1.1" id="Layer_1" xmlns="http://www.w3.org/2000/svg" xmlns:xlink="http://www.w3.org/1999/xlink" x="0px" y="0px"
	 width="4339.848px" height="459.781px" viewBox="0 0 4339.848 459.781" enable-background="new 0 0 4339.848 459.781"
	 xml:space="preserve">
<path fill="#5ec163" d="M11.336,122.5c94.5,65.063,159.348,168.402,126.09,248.922c75.719-44.359,60.453-124.289,72.078-185.91
	c17.848,61.859,57.594,109.078,19.133,160.07c107.164-67.281,115.137-167.109,71.93-267.352
	c77.59,68.941,98.5,131.461,51.379,204.34C436.641,194.902,446.594,99.422,405.895,5c92.574,86.652,45.754,248.301,5.008,342.832
	c19.008-60.609,92.082-179.68,164.543-211.711c-50.984,56.742-97.441,177.121-69.516,238.82c-5.313-28,55.953-133.43,70.813-155.602
	c5.477,116.422,8.699,122.48,55.219,172.223c69.461-69.031,32.469-127.25-15.41-190.73c72.207,33.699,92.48,104.09,92.48,158.371
	c75.855-109.703-18.648-168.422-59.086-262.242C731.363,178.41,834.91,252.543,834.91,362.613
	c9.68-62.5-25.426-137.211,10.273-192.434c3.633,59.602,53.164,107.031,82.207,158.371c-29.391-95.84,79.637-160.289,79.637-252.027
	c28.512,92.348-47.969,164.539-20.547,255.43c-9.75-55.98,25.43-98.543,71.93-139.633c-13.84,42.59-20.063,92.242-2.57,132.82
	c2.398-86.211,172.121-107.258,172.121-195.828c24.148,88.57-91.031,139.719-110.461,229.891
	c12.238-55.07,86.938-94.852,146.43-127.723c-61.969,39.512-64.23,84.859-64.23,141.34
	c102.012-79.219,143.859-133.598,143.859-241.809c14.43,72.809,24.98,159.93-38.531,223.078
	c64.184-29.348,82.211-74.449,82.211-122.609c24.23,57.59-3.789,103.652-46.238,143.051
	c137.27-62.828,135.379-217.719,280.008-265.648c-75.828,52.16-113.027,116.398-113.027,190.719
	c25.129-46.121,100.188-68.641,100.188-124.309c10.449,43.809-0.25,83.82-23.117,119.199
	c54.418-88.719,138.098-172.301,274.867-211.16c-118.57,65.371-184.188,150.898-202.938,250.328
	c20.02-49.949,66.059-96.578,118.168-131.117c-50.918,54.297-76.988,109.188-53.949,170.277
	c36.59-78.379,100.629-179.648,223.5-214.559c-107.34,36.52-143.859,114-143.859,189.02c12.02-41.539,53.129-92.039,110.461-115.801
	c-24.082,44-75.492,91.242-33.391,142.723c44.801-146.41,220.207-184.43,244.051-326.633
	c15.156,97.98-53.531,179.953-115.613,262.25c69.172-62.707,180.352-109.109,213.23-189.02
	c-14.449,69.781-78.367,121.129-118.168,180.5c32.84-45.891,87.328-91.949,159.27-112.391c-61.422,30.281-84.77,78.422-84.77,120.91
	c91.18-36.797,127.988-99.48,115.598-165.18c34.133,72.359,0.781,154.191-56.52,211.152
	c69.902-81.402,154.379-164.16,287.723-204.34c-100.652,41.117-149.023,92.09-164.41,163.477
	c25.578-40.879,84.168-67.887,138.719-88.547c-64.301,35.758-89.91,75.57-89.91,129.41c71.359-48.703,125.539-97.043,128.18-168.582
	c36.488,42.102,2.41,100.742-7.441,146.449c47.902-45.93,89.301-162.73,59.09-209.457c43.23,68.918,34.953,144.027,7.711,216.27
	c50.961-72.922,42.512-156.012,28.25-231.59c56.941,85.699,57.02,172.359,23.121,262.238
	c52.348-69.641,67.121-141.531,59.09-221.371c23.238,54.391,40.559,113.23,28.258,170.281
	c16.75-51.371,73.652-103.449,136.152-134.52c-48,47.691-60.52,122.68-38.531,173.691c-9.629-52.34,31.211-83.852,69.359-124.313
	c-11.539,48.461-40.387,102.859-12.84,151.563c43.883-81.48,127.41-192.691,69.359-279.281
	c76.051,70.578,45.621,166.301,20.551,245.219c79.41-45.141,77.07-136.27,77.07-200.938c40.84,63.219,20.332,140.637,7.711,199.238
	c62.449-76.391,123.891-114.43,102.75-246.918c86.879,108.488-4.602,176.387-51.379,238.398
	c48.207-55.082,113.629-101.93,196.57-129.422c-65.652,27.98-99.941,80.461-116.93,131.121
	c73.027-71.629,182.828-104.18,202.949-197.531c23.867,67.582-38.543,130.023-38.543,187.32c22.5-35.637,79.641-57.93,79.641-102.18
	c2.75,32.02,0.41,69.281-17.98,93.66c91.273-62.18,167.043-159.289,82.211-231.59c75.59,53.629,94.922,124.91,79.629,195.832
	c74.57-71.012,65.934-201.133-38.527-258.84c104.629,56.027,110.461,138.77,110.461,221.379
	c22.398-48.57,32.91-102.031,25.688-149.852c46.82,57.922,56.191,150.359,17.992,209.453c42.777-42.371,59.438-73.242,53.938-136.23
	c70.402,56.109-15.051,141.797-79.629,190.719c75.828-88.91,163.828-154.199,308.27-189.02
	c-69.359,21.598-174.691,87.16-174.691,139.641c42.063-41.793,109.293-66.57,174.691-85.152c-41.25,23.449-76.75,55.5-92.48,90.262
	c136.762-38.84,141.289-109.07,141.289-197.539c32.402,76.238,0.973,139.41-33.387,207.75
	c53.527-41.281,97.617-76.422,97.617-132.82c6.27,52.988-0.938,99.879-38.539,144.738c88.09-53.129,111.48-115.891,100.191-190.719
	c28.078,57.578,58.828,136.777-2.57,185.621c35.449-32.961,57.219-87.031,118.168-102.184
	c-44.199,45.152-59.078,93.301-59.078,146.453c-1.629-82.512,108.469-103.492,118.27-216.152
	c37.008,112.722-28.702,143.526-53.188,202.673c-3.974,9.598,38.249,0.039,46.688-60.712c1.667-12,10.462,127.968,17.559,150.93
	c-1468.738,9.961-3187.277-1.48-4339.848,5C62.633,303.453,118.445,376.523,11.336,122.5"/>
<path fill="#609A5E" d="M4267.642,436.71"/>
</svg>
