<?xml version="1.0" encoding="utf-8"?>
<!-- Generator: Adobe Illustrator 15.0.0, SVG Export Plug-In . SVG Version: 6.00 Build 0)  -->
<!DOCTYPE svg PUBLIC "-//W3C//DTD SVG 1.1//EN" "http://www.w3.org/Graphics/SVG/1.1/DTD/svg11.dtd">
<svg version="1.1" id="Layer_1" xmlns="http://www.w3.org/2000/svg" xmlns:xlink="http://www.w3.org/1999/xlink" x="0px" y="0px"
	 width="1184px" height="1036px" viewBox="659 723 1184 1036" enable-background="new 659 723 1184 1036" xml:space="preserve">
<path fill="#FFFFFF" d="M1215.371,771.761l-510.816,416.297c-12.766,10.402-19.77,24.242-20.605,40.68
	c-0.84,16.441,4.73,30.91,16.371,42.551l1.902,1.902c20.453,20.457,52.754,22.098,75.176,3.82l437.973-356.941
	c20.867-17.012,50.07-17.012,70.938,0l437.973,356.949c22.418,18.27,54.719,16.629,75.18-3.828l1.898-1.902
	c11.641-11.641,17.211-26.109,16.371-42.551c-0.84-16.438-7.84-30.27-20.602-40.68l-510.82-416.297
	C1265.442,754.75,1236.239,754.75,1215.371,771.761z M1552.699,1267.011v354.051H945.653v-426.273l-120.262,98.012v415.098
	c0,18.379,15.043,33.422,33.422,33.422h780.727c18.383,0,33.43-15.043,33.43-33.422v-409.727l-120.27-98.012V1267.011"/>
</svg>
