<?xml version="1.0" encoding="utf-8"?>
<!-- Generator: Adobe Illustrator 15.0.0, SVG Export Plug-In . SVG Version: 6.00 Build 0)  -->
<!DOCTYPE svg PUBLIC "-//W3C//DTD SVG 1.1//EN" "http://www.w3.org/Graphics/SVG/1.1/DTD/svg11.dtd">
<svg version="1.1" id="Layer_1" xmlns="http://www.w3.org/2000/svg" xmlns:xlink="http://www.w3.org/1999/xlink" x="0px" y="0px"
	 width="154.438px" height="152.102px" viewBox="0 0 154.438 152.102" enable-background="new 0 0 154.438 152.102"
	 xml:space="preserve">
<path fill="#FFFFFF" d="M109.742,78.404c0,17.963-14.562,32.523-32.523,32.523S44.695,96.367,44.695,78.404
	s14.562-32.523,32.524-32.523S109.742,60.441,109.742,78.404"/>
<path fill="#FFFFFF" d="M76.879,39.916c0,0-0.394-0.619-0.881-1.702c-0.239-0.543-0.526-1.2-0.776-1.955
	c-0.26-0.754-0.52-1.605-0.739-2.534c-0.229-0.929-0.426-1.936-0.573-3c-0.163-1.063-0.257-2.186-0.242-3.347
	c0.019-1.161,0.175-2.361,0.358-3.579c0.182-1.22,0.35-2.458,0.467-3.695c0.236-2.478,0.437-4.955,0.723-7.276
	c0.252-2.322,0.534-4.488,0.77-6.347c0.488-3.715,0.893-6.191,0.893-6.191c0.031-0.188,0.208-0.315,0.396-0.284
	c0.151,0.023,0.262,0.143,0.286,0.284c0,0,0.405,2.477,0.892,6.191c0.236,1.858,0.518,4.024,0.77,6.347
	c0.286,2.321,0.488,4.799,0.725,7.276c0.117,1.237,0.285,2.476,0.466,3.695c0.183,1.218,0.34,2.418,0.358,3.579
	c0.015,1.161-0.078,2.283-0.242,3.347c-0.147,1.064-0.344,2.071-0.572,3c-0.221,0.929-0.48,1.78-0.74,2.534
	c-0.25,0.755-0.535,1.412-0.775,1.955c-0.486,1.083-0.88,1.702-0.88,1.702c-0.12,0.188-0.37,0.244-0.558,0.124
	C76.952,40.007,76.91,39.964,76.879,39.916"/>
<path fill="#FFFFFF" d="M63.829,42.325c0,0-0.371-0.167-0.877-0.518c-0.258-0.173-0.541-0.394-0.845-0.656
	c-0.307-0.261-0.622-0.566-0.928-0.917c-0.607-0.7-1.239-1.546-1.622-2.567c-0.365-1.027-0.401-2.263-0.69-3.398
	c-0.265-1.145-0.553-2.281-0.758-3.372c-0.227-1.082-0.409-2.104-0.568-2.978c-0.309-1.753-0.46-2.941-0.46-2.941
	c-0.018-0.139,0.079-0.264,0.217-0.281c0.095-0.012,0.185,0.03,0.237,0.104c0,0,0.691,0.979,1.648,2.48
	c0.474,0.751,1.03,1.628,1.594,2.579c0.585,0.941,1.141,1.975,1.72,2.997c0.554,1.033,1.361,1.967,1.789,2.972
	c0.406,1.012,0.513,2.063,0.538,2.989c0.01,0.464-0.014,0.902-0.064,1.302c-0.047,0.398-0.106,0.754-0.181,1.056
	c-0.136,0.599-0.296,0.974-0.296,0.974c-0.074,0.173-0.274,0.253-0.447,0.18C63.833,42.327,63.83,42.325,63.829,42.325"/>
<path fill="#FFFFFF" d="M52.218,49.14c0,0-0.7-0.221-1.77-0.738c-0.531-0.262-1.173-0.581-1.85-0.999
	c-0.684-0.411-1.431-0.896-2.196-1.467c-0.772-0.563-1.569-1.208-2.367-1.929c-0.808-0.71-1.601-1.51-2.337-2.408
	c-0.731-0.901-1.382-1.922-2.026-2.973c-0.645-1.051-1.311-2.106-2.018-3.13c-1.411-2.05-2.849-4.077-4.122-6.039
	c-1.3-1.941-2.477-3.782-3.49-5.355c-2.015-3.16-3.296-5.317-3.296-5.317c-0.097-0.164-0.043-0.377,0.121-0.474
	c0.13-0.078,0.292-0.059,0.401,0.034c0,0,1.903,1.637,4.664,4.17c1.375,1.271,2.983,2.751,4.669,4.367
	c1.712,1.595,3.458,3.361,5.231,5.107c0.886,0.874,1.811,1.714,2.733,2.531c0.924,0.815,1.814,1.636,2.575,2.513
	c0.758,0.879,1.408,1.799,1.967,2.718c0.571,0.911,1.067,1.808,1.488,2.666c0.43,0.854,0.777,1.674,1.063,2.417
	c0.294,0.739,0.498,1.427,0.663,1.996c0.323,1.144,0.419,1.872,0.419,1.872c0.03,0.221-0.126,0.423-0.348,0.452
	C52.332,49.162,52.272,49.156,52.218,49.14"/>
<path fill="#FFFFFF" d="M43.77,59.374c0,0-0.392,0.109-1.004,0.167c-0.309,0.033-0.668,0.046-1.07,0.04
	c-0.403-0.002-0.841-0.034-1.299-0.106c-0.916-0.145-1.943-0.388-2.894-0.923c-0.94-0.555-1.761-1.477-2.713-2.16
	c-0.938-0.707-1.889-1.394-2.747-2.097c-0.87-0.683-1.666-1.349-2.35-1.916c-1.362-1.145-2.243-1.957-2.243-1.957
	c-0.102-0.095-0.108-0.253-0.014-0.355c0.065-0.07,0.162-0.095,0.248-0.072c0,0,1.16,0.306,2.857,0.84
	c0.846,0.272,1.835,0.585,2.878,0.951c1.055,0.347,2.144,0.779,3.245,1.192c1.088,0.434,2.307,0.63,3.279,1.126
	c0.963,0.513,1.72,1.25,2.334,1.943c0.306,0.349,0.57,0.7,0.789,1.038c0.219,0.337,0.402,0.646,0.539,0.925
	c0.281,0.547,0.399,0.936,0.399,0.936c0.055,0.181-0.047,0.371-0.227,0.427C43.774,59.372,43.771,59.373,43.77,59.374"/>
<path fill="#FFFFFF" d="M39.256,72.057c0,0-0.678,0.28-1.83,0.572c-0.575,0.141-1.272,0.309-2.059,0.424
	c-0.788,0.124-1.672,0.233-2.625,0.289c-0.954,0.063-1.979,0.082-3.053,0.042c-1.076-0.023-2.197-0.127-3.338-0.342
	c-1.14-0.221-2.294-0.583-3.463-0.976c-1.169-0.39-2.359-0.771-3.559-1.101c-2.398-0.662-4.802-1.291-7.039-1.976
	c-2.242-0.651-4.328-1.306-6.116-1.86c-3.574-1.125-5.942-1.954-5.943-1.954c-0.18-0.063-0.275-0.261-0.211-0.44
	c0.05-0.144,0.186-0.233,0.33-0.231c0,0,2.509,0.03,6.252,0.196c1.871,0.09,4.054,0.188,6.384,0.344
	c2.336,0.122,4.811,0.354,7.291,0.551c1.239,0.101,2.488,0.148,3.72,0.182c1.232,0.032,2.441,0.086,3.587,0.269
	c1.147,0.188,2.235,0.475,3.255,0.82c1.022,0.33,1.979,0.698,2.854,1.084c0.876,0.379,1.67,0.783,2.368,1.169
	c0.699,0.378,1.298,0.773,1.79,1.103c0.982,0.669,1.524,1.164,1.524,1.164c0.164,0.151,0.175,0.406,0.025,0.57
	C39.359,72,39.309,72.034,39.256,72.057"/>
<path fill="#FFFFFF" d="M39.362,85.327c0,0-0.229,0.336-0.662,0.773c-0.214,0.225-0.482,0.465-0.792,0.72
	c-0.311,0.257-0.668,0.513-1.064,0.753c-0.795,0.478-1.738,0.951-2.811,1.153c-1.075,0.179-2.297,0.001-3.466,0.088
	c-1.174,0.063-2.343,0.147-3.453,0.16c-1.104,0.037-2.142,0.038-3.031,0.043c-1.779-0.001-2.976-0.059-2.976-0.059
	c-0.139-0.007-0.246-0.124-0.239-0.263c0.005-0.096,0.063-0.176,0.143-0.215c0,0,1.085-0.511,2.728-1.193
	c0.823-0.335,1.782-0.73,2.817-1.12c1.03-0.413,2.143-0.782,3.251-1.174c1.113-0.366,2.173-0.999,3.236-1.244
	c1.067-0.226,2.121-0.148,3.038-0.012c0.459,0.07,0.886,0.169,1.271,0.289c0.385,0.116,0.723,0.235,1.008,0.36
	c0.566,0.239,0.907,0.462,0.907,0.462c0.157,0.103,0.202,0.313,0.099,0.472C39.365,85.323,39.363,85.325,39.362,85.327"/>
<path fill="#FFFFFF" d="M44.057,97.943c0,0-0.339,0.65-1.033,1.614c-0.35,0.478-0.777,1.055-1.305,1.648
	c-0.524,0.603-1.131,1.254-1.826,1.908c-0.69,0.663-1.462,1.336-2.311,1.996c-0.84,0.673-1.765,1.314-2.778,1.883
	c-1.015,0.564-2.131,1.028-3.279,1.479c-1.146,0.453-2.302,0.927-3.433,1.445c-2.263,1.034-4.509,2.098-6.663,3.011
	c-2.137,0.943-4.154,1.782-5.881,2.507c-3.461,1.436-5.808,2.322-5.808,2.322c-0.179,0.068-0.378-0.022-0.446-0.201
	c-0.053-0.142-0.007-0.298,0.105-0.389c0,0,1.942-1.59,4.916-3.87c1.49-1.132,3.226-2.46,5.111-3.839
	c1.868-1.409,3.912-2.821,5.939-4.266c1.013-0.719,2.002-1.484,2.967-2.25c0.964-0.769,1.925-1.504,2.921-2.101
	c0.998-0.593,2.016-1.074,3.02-1.465c0.995-0.405,1.964-0.737,2.883-1.004c0.914-0.274,1.782-0.474,2.565-0.626
	c0.778-0.162,1.492-0.242,2.08-0.307c1.182-0.119,1.916-0.087,1.916-0.087c0.222,0.009,0.395,0.197,0.386,0.42
	C44.1,97.835,44.083,97.894,44.057,97.943"/>
<path fill="#FFFFFF" d="M52.668,108.041c0,0,0.041,0.405-0.009,1.019c-0.02,0.311-0.071,0.666-0.145,1.06
	c-0.073,0.397-0.182,0.822-0.331,1.262c-0.302,0.877-0.72,1.848-1.412,2.689c-0.709,0.83-1.759,1.479-2.598,2.297
	c-0.86,0.802-1.7,1.618-2.543,2.341c-0.822,0.738-1.616,1.406-2.294,1.98c-1.364,1.144-2.318,1.87-2.318,1.87
	c-0.11,0.084-0.267,0.063-0.351-0.048c-0.058-0.074-0.066-0.176-0.028-0.256c0,0,0.502-1.09,1.322-2.668
	c0.415-0.787,0.895-1.706,1.437-2.67c0.524-0.979,1.14-1.975,1.736-2.989c0.617-0.995,1.023-2.162,1.68-3.032
	c0.673-0.859,1.529-1.477,2.319-1.962c0.397-0.241,0.788-0.439,1.16-0.596c0.369-0.159,0.705-0.284,1.004-0.372
	c0.587-0.181,0.992-0.229,0.992-0.229c0.187-0.023,0.356,0.11,0.379,0.297C52.668,108.036,52.668,108.04,52.668,108.041"/>
<path fill="#FFFFFF" d="M64.375,114.688c0,0,0.158,0.717,0.246,1.9c0.038,0.592,0.083,1.309,0.06,2.103
	c-0.014,0.798-0.061,1.688-0.173,2.635c-0.102,0.951-0.261,1.964-0.487,3.014c-0.211,1.058-0.507,2.144-0.918,3.229
	c-0.415,1.084-0.972,2.158-1.561,3.241c-0.587,1.084-1.168,2.19-1.702,3.313c-1.069,2.246-2.106,4.505-3.169,6.59
	c-1.031,2.094-2.037,4.034-2.894,5.699c-1.728,3.325-2.957,5.513-2.956,5.513c-0.094,0.167-0.304,0.227-0.47,0.133
	c-0.133-0.074-0.197-0.225-0.171-0.365c0,0,0.466-2.466,1.278-6.123c0.415-1.827,0.891-3.96,1.448-6.229
	c0.526-2.279,1.183-4.676,1.808-7.083c0.314-1.203,0.579-2.425,0.827-3.633c0.245-1.208,0.508-2.389,0.887-3.485
	c0.384-1.098,0.855-2.119,1.372-3.064c0.503-0.95,1.032-1.827,1.564-2.621c0.524-0.798,1.061-1.509,1.562-2.129
	c0.493-0.624,0.988-1.144,1.397-1.571c0.829-0.852,1.411-1.299,1.411-1.299c0.177-0.135,0.431-0.103,0.567,0.074
	C64.337,114.577,64.362,114.634,64.375,114.688"/>
<path fill="#FFFFFF" d="M77.462,116.889c0,0,0.292,0.284,0.646,0.786c0.185,0.25,0.375,0.556,0.571,0.906
	c0.199,0.35,0.39,0.745,0.557,1.178c0.332,0.865,0.637,1.877,0.646,2.968c-0.008,1.092-0.396,2.264-0.514,3.43
	c-0.143,1.166-0.261,2.332-0.441,3.428c-0.156,1.094-0.336,2.116-0.484,2.992c-0.311,1.752-0.574,2.922-0.574,2.922
	c-0.031,0.136-0.164,0.219-0.3,0.188c-0.094-0.021-0.163-0.091-0.187-0.179c0,0-0.315-1.156-0.702-2.894
	c-0.187-0.868-0.41-1.881-0.614-2.968c-0.229-1.086-0.397-2.246-0.592-3.405c-0.167-1.16-0.606-2.313-0.663-3.403
	c-0.037-1.091,0.222-2.115,0.516-2.994c0.149-0.439,0.322-0.843,0.506-1.201c0.181-0.358,0.357-0.671,0.53-0.93
	c0.333-0.517,0.612-0.813,0.612-0.813c0.129-0.137,0.344-0.145,0.482-0.016C77.458,116.885,77.461,116.888,77.462,116.889"/>
<path fill="#FFFFFF" d="M90.703,114.456c0,0,0.582,0.447,1.411,1.298c0.409,0.429,0.903,0.947,1.397,1.571
	c0.5,0.62,1.037,1.332,1.561,2.129c0.533,0.795,1.063,1.673,1.564,2.623c0.517,0.943,0.987,1.967,1.371,3.063
	c0.379,1.097,0.644,2.277,0.889,3.485c0.246,1.207,0.512,2.429,0.826,3.633c0.625,2.408,1.281,4.804,1.807,7.084
	c0.557,2.268,1.033,4.4,1.447,6.227c0.813,3.657,1.278,6.123,1.278,6.123c0.035,0.188-0.088,0.369-0.274,0.403
	c-0.15,0.028-0.295-0.044-0.366-0.169c0.001,0-1.228-2.189-2.957-5.513c-0.856-1.665-1.862-3.605-2.894-5.701
	c-1.063-2.084-2.099-4.343-3.168-6.589c-0.533-1.123-1.115-2.231-1.703-3.314c-0.588-1.082-1.145-2.156-1.56-3.24
	c-0.411-1.086-0.707-2.172-0.918-3.229c-0.226-1.05-0.384-2.063-0.487-3.014c-0.11-0.948-0.158-1.837-0.172-2.636
	c-0.023-0.794,0.021-1.511,0.061-2.102c0.088-1.184,0.246-1.901,0.246-1.901c0.049-0.218,0.264-0.355,0.481-0.307
	C90.604,114.396,90.658,114.422,90.703,114.456"/>
<path fill="#FFFFFF" d="M102.143,107.729c0,0.001,0.406,0.031,1,0.188c0.303,0.073,0.645,0.185,1.021,0.326
	c0.377,0.141,0.778,0.321,1.185,0.545c0.811,0.45,1.692,1.029,2.402,1.857c0.693,0.842,1.15,1.989,1.811,2.957
	c0.641,0.986,1.299,1.956,1.864,2.91c0.583,0.939,1.104,1.837,1.552,2.604c0.89,1.541,1.438,2.607,1.438,2.606
	c0.063,0.124,0.015,0.275-0.108,0.339c-0.086,0.044-0.185,0.034-0.258-0.018c0,0-0.984-0.683-2.396-1.765
	c-0.702-0.546-1.525-1.178-2.379-1.88c-0.873-0.685-1.748-1.465-2.642-2.228c-0.875-0.781-1.952-1.383-2.696-2.181
	c-0.729-0.812-1.188-1.763-1.527-2.625c-0.169-0.433-0.297-0.853-0.387-1.246c-0.09-0.391-0.157-0.743-0.19-1.053
	c-0.077-0.608-0.054-1.017-0.054-1.017c0.011-0.188,0.171-0.331,0.359-0.321H102.143z"/>
<path fill="#FFFFFF" d="M110.721,97.354c0,0,0.733-0.031,1.916,0.088c0.588,0.064,1.302,0.145,2.08,0.306
	c0.782,0.153,1.65,0.353,2.565,0.627c0.918,0.266,1.888,0.599,2.883,1.004c1.003,0.391,2.022,0.87,3.021,1.464
	c0.994,0.597,1.957,1.333,2.921,2.101c0.965,0.765,1.952,1.531,2.967,2.251c2.026,1.443,4.071,2.855,5.938,4.265
	c1.886,1.38,3.621,2.706,5.111,3.839c2.975,2.281,4.915,3.869,4.915,3.869c0.147,0.122,0.17,0.339,0.05,0.487
	c-0.097,0.118-0.255,0.154-0.39,0.104c0,0-2.349-0.888-5.81-2.322c-1.727-0.725-3.744-1.564-5.879-2.507
	c-2.156-0.913-4.4-1.978-6.664-3.013c-1.131-0.517-2.287-0.99-3.434-1.443c-1.146-0.45-2.264-0.914-3.279-1.479
	c-1.013-0.567-1.938-1.21-2.777-1.884c-0.848-0.658-1.621-1.332-2.311-1.995c-0.695-0.655-1.302-1.305-1.826-1.907
	c-0.528-0.594-0.955-1.171-1.305-1.648c-0.693-0.964-1.033-1.615-1.033-1.615c-0.104-0.197-0.027-0.441,0.172-0.545
	C110.605,97.372,110.664,97.357,110.721,97.354"/>
<path fill="#FFFFFF" d="M115.161,84.848c0,0,0.331-0.238,0.886-0.501c0.279-0.138,0.612-0.271,0.991-0.404
	c0.38-0.136,0.802-0.254,1.257-0.345c0.91-0.176,1.959-0.299,3.035-0.122c1.073,0.2,2.16,0.786,3.288,1.103
	c1.124,0.344,2.251,0.663,3.298,1.031c1.051,0.344,2.026,0.697,2.863,0.996c1.672,0.61,2.777,1.072,2.777,1.072
	c0.127,0.055,0.188,0.202,0.135,0.329c-0.037,0.089-0.119,0.145-0.209,0.152c0,0-1.194,0.11-2.971,0.188
	c-0.889,0.034-1.926,0.078-3.031,0.09c-1.108,0.036-2.279,0.002-3.455-0.008c-1.172-0.037-2.385,0.194-3.467,0.062
	c-1.08-0.153-2.043-0.587-2.857-1.028c-0.407-0.223-0.775-0.463-1.096-0.706c-0.321-0.241-0.6-0.47-0.823-0.685
	c-0.451-0.418-0.695-0.743-0.695-0.743c-0.112-0.15-0.081-0.364,0.068-0.478C115.157,84.852,115.16,84.849,115.161,84.848"/>
<path fill="#FFFFFF" d="M115.063,71.386c0,0,0.542-0.495,1.524-1.163c0.492-0.329,1.09-0.726,1.789-1.104
	c0.698-0.386,1.492-0.791,2.369-1.168c0.875-0.386,1.832-0.755,2.854-1.084c1.02-0.347,2.109-0.634,3.255-0.82
	c1.147-0.182,2.354-0.237,3.587-0.269c1.232-0.034,2.48-0.082,3.721-0.183c2.48-0.197,4.953-0.43,7.291-0.55
	c2.329-0.155,4.512-0.255,6.383-0.345c3.744-0.165,6.252-0.195,6.252-0.195c0.191-0.003,0.349,0.151,0.351,0.341
	c0.002,0.152-0.097,0.282-0.231,0.331c0,0-2.369,0.829-5.942,1.953c-1.788,0.556-3.873,1.208-6.117,1.861
	c-2.235,0.685-4.642,1.313-7.038,1.976c-1.199,0.329-2.391,0.71-3.559,1.1c-1.17,0.393-2.323,0.756-3.463,0.975
	c-1.142,0.217-2.263,0.319-3.34,0.344c-1.072,0.039-2.098,0.021-3.053-0.043c-0.951-0.056-1.836-0.164-2.624-0.289
	c-0.786-0.114-1.485-0.283-2.06-0.424c-1.151-0.292-1.829-0.572-1.829-0.572c-0.206-0.086-0.306-0.322-0.22-0.528
	C114.986,71.474,115.022,71.425,115.063,71.386"/>
<path fill="#FFFFFF" d="M110.426,58.951c0,0,0.102-0.396,0.356-0.953c0.125-0.285,0.294-0.602,0.499-0.947
	c0.204-0.348,0.452-0.71,0.743-1.071c0.583-0.721,1.308-1.489,2.246-2.045c0.95-0.536,2.159-0.786,3.228-1.269
	c1.081-0.458,2.15-0.939,3.189-1.33c1.025-0.412,2-0.768,2.833-1.076c1.672-0.608,2.817-0.965,2.817-0.965
	c0.131-0.04,0.272,0.033,0.313,0.166c0.028,0.091,0.002,0.188-0.062,0.251c0,0-0.844,0.852-2.155,2.055
	c-0.658,0.596-1.425,1.296-2.263,2.017c-0.826,0.739-1.746,1.466-2.653,2.214c-0.921,0.725-1.701,1.682-2.615,2.276
	c-0.927,0.576-1.942,0.863-2.851,1.049c-0.455,0.092-0.892,0.143-1.295,0.164c-0.4,0.021-0.76,0.024-1.069,0.004
	c-0.614-0.031-1.011-0.122-1.011-0.122c-0.184-0.044-0.297-0.227-0.254-0.41C110.424,58.956,110.426,58.953,110.426,58.951"/>
<path fill="#FFFFFF" d="M101.698,48.702c0,0,0.097-0.729,0.419-1.871c0.166-0.568,0.369-1.257,0.662-1.995
	c0.287-0.745,0.634-1.565,1.063-2.417c0.422-0.858,0.918-1.756,1.49-2.666c0.559-0.92,1.209-1.839,1.967-2.72
	c0.76-0.877,1.65-1.695,2.574-2.511c0.924-0.818,1.848-1.658,2.733-2.532c1.772-1.745,3.521-3.513,5.231-5.108
	c1.686-1.616,3.295-3.095,4.668-4.366c2.762-2.533,4.666-4.169,4.666-4.169c0.144-0.123,0.361-0.108,0.485,0.036
	c0.101,0.116,0.108,0.277,0.036,0.402c0,0-1.282,2.158-3.296,5.317c-1.013,1.574-2.191,3.415-3.491,5.355
	c-1.273,1.963-2.71,3.989-4.122,6.038c-0.706,1.024-1.374,2.081-2.019,3.131c-0.643,1.052-1.295,2.071-2.026,2.973
	c-0.733,0.898-1.528,1.697-2.337,2.409c-0.796,0.72-1.594,1.364-2.366,1.929c-0.765,0.571-1.512,1.055-2.196,1.467
	c-0.677,0.417-1.318,0.736-1.85,0.999c-1.07,0.516-1.77,0.737-1.77,0.737c-0.213,0.067-0.44-0.051-0.508-0.264
	C101.695,48.818,101.691,48.759,101.698,48.702"/>
<path fill="#FFFFFF" d="M90.152,42.158c0,0-0.177-0.367-0.34-0.96c-0.087-0.299-0.16-0.649-0.226-1.047
	c-0.067-0.396-0.111-0.834-0.121-1.298c-0.017-0.926,0.045-1.98,0.408-3.009c0.382-1.022,1.147-1.991,1.655-3.047
	c0.533-1.048,1.043-2.104,1.588-3.069c0.521-0.976,1.039-1.874,1.479-2.646c0.891-1.54,1.539-2.549,1.539-2.549
	c0.075-0.116,0.23-0.15,0.348-0.074c0.08,0.052,0.121,0.143,0.113,0.231c0,0-0.1,1.195-0.331,2.959
	c-0.12,0.88-0.258,1.908-0.437,2.999c-0.157,1.098-0.396,2.246-0.609,3.401c-0.24,1.147-0.222,2.382-0.541,3.425
	c-0.339,1.037-0.932,1.911-1.509,2.637c-0.29,0.361-0.591,0.682-0.886,0.955c-0.293,0.275-0.566,0.51-0.817,0.692
	c-0.49,0.371-0.853,0.555-0.853,0.555c-0.168,0.086-0.373,0.019-0.459-0.15C90.154,42.163,90.152,42.16,90.152,42.158"/>
</svg>
